G04 EAGLE Gerber RS-274X export*
G75*
%MOMM*%
%FSLAX34Y34*%
%LPD*%
%INTop Copper*%
%IPPOS*%
%AMOC8*
5,1,8,0,0,1.08239X$1,22.5*%
G01*
%ADD10C,1.320800*%
%ADD11C,0.152400*%
%ADD12C,0.756400*%


D10*
X330200Y82296D02*
X330200Y95504D01*
X304800Y95504D02*
X304800Y82296D01*
X279400Y82296D02*
X279400Y95504D01*
X254000Y95504D02*
X254000Y82296D01*
X228600Y82296D02*
X228600Y95504D01*
X203200Y95504D02*
X203200Y82296D01*
X177800Y82296D02*
X177800Y95504D01*
X152400Y95504D02*
X152400Y82296D01*
X127000Y82296D02*
X127000Y95504D01*
X101600Y95504D02*
X101600Y82296D01*
X76200Y82296D02*
X76200Y95504D01*
X50800Y95504D02*
X50800Y82296D01*
X50800Y183896D02*
X50800Y197104D01*
X76200Y197104D02*
X76200Y183896D01*
X101600Y183896D02*
X101600Y197104D01*
X127000Y197104D02*
X127000Y183896D01*
X152400Y183896D02*
X152400Y197104D01*
X177800Y197104D02*
X177800Y183896D01*
X203200Y183896D02*
X203200Y197104D01*
X228600Y197104D02*
X228600Y183896D01*
X254000Y183896D02*
X254000Y197104D01*
X279400Y197104D02*
X279400Y183896D01*
X304800Y183896D02*
X304800Y197104D01*
X330200Y197104D02*
X330200Y183896D01*
X25400Y32004D02*
X25400Y18796D01*
X50800Y18796D02*
X50800Y32004D01*
X177800Y32004D02*
X177800Y18796D01*
X203200Y18796D02*
X203200Y32004D01*
X76200Y32004D02*
X76200Y18796D01*
X101600Y18796D02*
X101600Y32004D01*
X152400Y32004D02*
X152400Y18796D01*
X127000Y18796D02*
X127000Y32004D01*
X228600Y32004D02*
X228600Y18796D01*
X254000Y18796D02*
X254000Y32004D01*
X279400Y32004D02*
X279400Y18796D01*
X304800Y18796D02*
X304800Y32004D01*
X330200Y32004D02*
X330200Y18796D01*
X355600Y18796D02*
X355600Y32004D01*
X355600Y120396D02*
X355600Y133604D01*
X330200Y133604D02*
X330200Y120396D01*
X304800Y120396D02*
X304800Y133604D01*
X279400Y133604D02*
X279400Y120396D01*
X254000Y120396D02*
X254000Y133604D01*
X228600Y133604D02*
X228600Y120396D01*
X203200Y120396D02*
X203200Y133604D01*
X177800Y133604D02*
X177800Y120396D01*
X152400Y120396D02*
X152400Y133604D01*
X127000Y133604D02*
X127000Y120396D01*
X101600Y120396D02*
X101600Y133604D01*
X76200Y133604D02*
X76200Y120396D01*
X50800Y120396D02*
X50800Y133604D01*
X25400Y133604D02*
X25400Y120396D01*
D11*
X152400Y39624D02*
X152400Y25400D01*
X152400Y39624D02*
X140208Y51816D01*
D12*
X140208Y51816D03*
D11*
X208788Y57912D02*
X208788Y68580D01*
X228600Y88392D01*
X228600Y88900D01*
D12*
X208788Y57912D03*
D11*
X202692Y88392D02*
X202692Y25908D01*
X203200Y25400D01*
X202692Y88392D02*
X203200Y88900D01*
X178308Y88392D02*
X178308Y83820D01*
X199644Y62484D01*
X199644Y47244D01*
X196596Y44196D01*
X178308Y88392D02*
X177800Y88900D01*
D12*
X196596Y44196D03*
D11*
X252984Y38100D02*
X252984Y25908D01*
X252984Y38100D02*
X237744Y53340D01*
X237744Y99060D01*
X231648Y105156D01*
X167640Y105156D01*
X152400Y89916D01*
X252984Y25908D02*
X254000Y25400D01*
X152400Y88900D02*
X152400Y89916D01*
X132588Y88392D02*
X128016Y88392D01*
X132588Y88392D02*
X156972Y64008D01*
X184404Y64008D01*
X128016Y88392D02*
X127000Y88900D01*
D12*
X184404Y64008D03*
D11*
X108204Y88392D02*
X102108Y88392D01*
X108204Y88392D02*
X138684Y57912D01*
X192024Y57912D01*
X193548Y59436D01*
X243840Y56388D02*
X274320Y56388D01*
X304800Y25908D01*
X102108Y88392D02*
X101600Y88900D01*
X304800Y25908D02*
X304800Y25400D01*
D12*
X193548Y59436D03*
X243840Y56388D03*
D11*
X82296Y89916D02*
X76200Y89916D01*
X82296Y89916D02*
X100584Y108204D01*
X254508Y108204D01*
X269748Y92964D01*
X269748Y79248D01*
X307848Y41148D01*
X313944Y41148D01*
X329184Y25908D01*
X76200Y88900D02*
X76200Y89916D01*
X329184Y25908D02*
X330200Y25400D01*
X348996Y126492D02*
X355092Y126492D01*
X348996Y126492D02*
X333756Y111252D01*
X249936Y111252D01*
X237744Y123444D01*
X237744Y147828D01*
X216408Y169164D01*
X355092Y126492D02*
X355600Y127000D01*
D12*
X216408Y169164D03*
D11*
X304800Y170688D02*
X304800Y127000D01*
X304800Y170688D02*
X289560Y185928D01*
X289560Y199644D01*
X275844Y213360D01*
X124968Y213360D01*
X102108Y190500D01*
X101600Y190500D01*
X278892Y170688D02*
X278892Y128016D01*
X278892Y170688D02*
X263652Y185928D01*
X263652Y201168D01*
X257556Y207264D01*
X243840Y207264D01*
X242316Y205740D01*
X278892Y128016D02*
X279400Y127000D01*
D12*
X242316Y205740D03*
D11*
X252984Y172212D02*
X252984Y128016D01*
X252984Y172212D02*
X237744Y187452D01*
X237744Y201168D01*
X228600Y210312D01*
X172212Y210312D01*
X152400Y190500D01*
X252984Y128016D02*
X254000Y127000D01*
X152400Y127000D02*
X152400Y150876D01*
X176784Y175260D01*
X176784Y190500D01*
X177800Y190500D01*
X204216Y190500D02*
X204216Y128016D01*
X203200Y127000D01*
X203200Y190500D02*
X204216Y190500D01*
X184404Y126492D02*
X178308Y126492D01*
X184404Y126492D02*
X199644Y111252D01*
X207264Y111252D01*
X213360Y117348D01*
X213360Y163068D01*
X210312Y166116D01*
X210312Y172212D01*
X228600Y190500D01*
X177800Y127000D02*
X178308Y126492D01*
X51816Y70104D02*
X51816Y25908D01*
X51816Y70104D02*
X67056Y85344D01*
X67056Y99060D01*
X79248Y111252D01*
X105156Y111252D01*
X117348Y123444D01*
X117348Y137160D01*
X147828Y167640D01*
X164592Y167640D01*
X167640Y170688D01*
X167640Y199644D01*
X175260Y207264D01*
X205740Y207264D01*
X216408Y196596D01*
X216408Y187452D01*
X51816Y25908D02*
X50800Y25400D01*
D12*
X216408Y187452D03*
D11*
X132588Y126492D02*
X128016Y126492D01*
X132588Y126492D02*
X147828Y111252D01*
X156972Y111252D01*
X167640Y121920D01*
X167640Y137160D01*
X187452Y156972D01*
X198120Y156972D01*
X128016Y126492D02*
X127000Y127000D01*
D12*
X198120Y156972D03*
D11*
X147828Y173736D02*
X102108Y128016D01*
X147828Y173736D02*
X161544Y173736D01*
X102108Y128016D02*
X101600Y127000D01*
D12*
X161544Y173736D03*
D11*
X25908Y126492D02*
X25908Y25908D01*
X25400Y25400D01*
X25908Y126492D02*
X25400Y127000D01*
X51816Y128016D02*
X76200Y128016D01*
X51816Y128016D02*
X50800Y127000D01*
X76200Y127000D02*
X76200Y128016D01*
X50292Y128016D02*
X25908Y128016D01*
X25400Y127000D01*
X50292Y128016D02*
X50800Y127000D01*
M02*
