M48
;GenerationSoftware,Autodesk,EAGLE,9.6.1*%
;CreationDate,2020-07-29T21:10:59Z*%
FMAT,2
ICI,OFF
METRIC,TZ,000.000
T2C0.350
T1C0.813
%
G90
M71
T1
X25400Y8890
X27940Y12700
X25400Y12700
X22860Y12700
X17780Y12700
X15240Y12700
X12700Y12700
X25400Y19050
X10160Y12700
X7620Y12700
X5080Y12700
X33020Y8890
X30480Y8890
X27940Y8890
X2540Y12700
X22860Y8890
X20320Y8890
X17780Y8890
X15240Y8890
X12700Y8890
X10160Y8890
X7620Y8890
X5080Y8890
X5080Y19050
X7620Y19050
X10160Y19050
X12700Y19050
X15240Y19050
X17780Y19050
X20320Y19050
X22860Y19050
X20320Y12700
X27940Y19050
X30480Y19050
X33020Y19050
X2540Y2540
X5080Y2540
X17780Y2540
X20320Y2540
X7620Y2540
X10160Y2540
X15240Y2540
X12700Y2540
X22860Y2540
X25400Y2540
X27940Y2540
X30480Y2540
X33020Y2540
X35560Y2540
X35560Y12700
X33020Y12700
X30480Y12700
T2
X20879Y5791
X19660Y4420
X18440Y6401
X19355Y5944
X24384Y5639
X21641Y16916
X21641Y18745
X19812Y15697
X16154Y17374
X24232Y20574
X14021Y5182
M30